<svg width="19" height="30" viewBox="0 0 19 30" fill="none" xmlns="http://www.w3.org/2000/svg">
<path d="M12.3187 21.4989V12.3266H10.4396L6.68132 14.1611V21.4989H12.3187ZM2.92308 25.1678V8.65772H6.68132V10.4922L10.4396 8.65772H14.1978C14.7067 8.65772 15.1472 8.83925 15.5191 9.20232C15.891 9.56539 16.0769 9.99534 16.0769 10.4922V25.1678H2.92308Z" fill="white"/>
<path d="M19 30H0V26.3359H19V30ZM15.5654 3.66412H12.3956V0H7.1776L7.1776 3.66412H3.74367L3.74367 0H0.309114V6.87023H19V0H15.5654L15.5654 3.66412Z" fill="white"/>
<path d="M12.3956 0V3.66412H15.5654L15.5654 0H19V6.87023H0.309114V0H3.74367L3.74367 3.66412H7.1776L7.1776 0H12.3956Z" fill="white"/>
</svg>
