<svg width="256" height="256" viewBox="0 0 256 256" fill="none" xmlns="http://www.w3.org/2000/svg">
<rect width="256" height="256" fill="#1F2937"/>
<path d="M141 159.778V114.222H132L114 123.333V159.778H141ZM96 178V96H114V105.111L132 96H150C152.438 96 154.547 96.9016 156.328 98.7049C158.109 100.508 159 102.644 159 105.111V178H96Z" fill="white"/>
<path d="M173 202H82V183.802H173V202ZM156.55 71.1985H148.922H141.368V53H116.377L116.377 71.1985H108.593H99.9302L99.9302 53H83.4805V87.1221H128.637H173V53H156.55L156.55 71.1985Z" fill="white"/>
<path d="M141.368 53V71.1985H148.922H156.55L156.55 53H173V87.1221H128.637H83.4805V53H99.9302L99.9302 71.1985H108.593H116.377L116.377 53H141.368Z" fill="white"/>
</svg>
