<svg width="28" height="27" viewBox="0 0 28 27" fill="none" xmlns="http://www.w3.org/2000/svg">
<g clip-path="url(#clip0_128_56)">
<path d="M14 27C21.732 27 28 20.9558 28 13.5C28 6.04416 21.732 0 14 0C6.26801 0 0 6.04416 0 13.5C0 20.9558 6.26801 27 14 27Z" fill="#F1B32B"/>
<path d="M13.7812 3.375C8.1025 3.375 3.5 7.81313 3.5 13.2891C3.5 18.765 8.1025 23.2031 13.7812 23.2031C19.46 23.2031 24.0625 18.765 24.0625 13.2891C24.0625 10.6597 22.9793 8.13801 21.0512 6.27876C19.1231 4.41951 16.508 3.375 13.7812 3.375ZM13.7812 20.7309C11.7344 20.7309 9.77146 19.9469 8.32415 18.5513C6.87684 17.1556 6.06375 15.2628 6.06375 13.2891C6.06375 11.3154 6.87684 9.42248 8.32415 8.02686C9.77146 6.63124 11.7344 5.84719 13.7812 5.84719C15.8281 5.84719 17.791 6.63124 19.2383 8.02686C20.6857 9.42248 21.4987 11.3154 21.4987 13.2891C21.4987 15.2628 20.6857 17.1556 19.2383 18.5513C17.791 19.9469 15.8281 20.7309 13.7812 20.7309ZM11.2175 13.2975L13.79 17.01L16.345 13.2975L13.79 9.57656L11.2175 13.2975Z" fill="white"/>
</g>
<defs>
<clipPath id="clip0_128_56">
<rect width="28" height="27" fill="white"/>
</clipPath>
</defs>
</svg>
