<?xml version="1.0" standalone="no"?>
<!DOCTYPE svg PUBLIC "-//W3C//DTD SVG 20010904//EN"
 "http://www.w3.org/TR/2001/REC-SVG-20010904/DTD/svg10.dtd">
<svg version="1.0" xmlns="http://www.w3.org/2000/svg"
 width="53.000000pt" height="39.000000pt" viewBox="0 0 53.000000 39.000000"
 preserveAspectRatio="xMidYMid meet">

<g transform="translate(0.000000,39.000000) scale(0.100000,-0.100000)"
fill="#000000" stroke="none">
<path d="M134 360 c-38 -15 -64 -59 -64 -108 0 -43 4 -48 92 -138 50 -52 97
-94 103 -94 6 0 53 42 103 94 89 90 92 95 92 139 0 90 -88 144 -162 100 -32
-19 -34 -19 -63 -1 -32 19 -67 22 -101 8z m46 -14 c0 -2 -7 -7 -16 -10 -8 -3
-12 -2 -9 4 6 10 25 14 25 6z m-70 -45 c-13 -25 -13 -78 0 -86 6 -3 10 -11 10
-18 0 -6 -7 -2 -15 9 -8 10 -15 32 -15 47 0 27 15 67 26 67 2 0 0 -9 -6 -19z
m70 -76 c0 -20 5 -25 25 -25 18 0 25 5 25 19 0 11 5 23 10 26 6 4 10 -15 10
-49 0 -31 -4 -56 -10 -56 -5 0 -10 11 -10 25 0 20 -5 25 -25 25 -20 0 -25 -5
-25 -25 0 -14 -4 -25 -10 -25 -5 0 -10 25 -10 55 0 30 5 55 10 55 6 0 10 -11
10 -25z m181 9 c18 -21 0 -48 -35 -52 -18 -2 -26 -9 -26 -23 0 -10 -4 -19 -10
-19 -5 0 -10 25 -10 55 l0 55 34 0 c18 0 39 -7 47 -16z"/>
<path d="M300 215 c0 -9 9 -15 25 -15 16 0 25 6 25 15 0 9 -9 15 -25 15 -16 0
-25 -6 -25 -15z"/>
</g>
</svg>
