<svg width="286" height="65" viewBox="0 0 286 65" fill="none" xmlns="http://www.w3.org/2000/svg">
<path d="M18.6583 43.4167V23.8333H7.46333V41.4583L11.195 43.4167H18.6583ZM22.39 63L14.9267 59.0833H3.73167V51.25H11.195L0 45.375V16H22.39C23.4007 16 24.2753 16.3876 25.0138 17.1628C25.7524 17.9379 26.1217 18.8559 26.1217 19.9167V51.25H14.9267L22.39 55.1667H29.8533V63H22.39Z" fill="white"/>
<path d="M33.2352 51.25C32.1856 51.25 31.2916 50.8828 30.553 50.1484C29.8533 49.3733 29.5035 48.4349 29.5035 47.3333V23.8333H36.9668V43.4167L44.4301 39.5V23.8333H51.8935V51.25H44.4301V47.3333L36.9668 51.25H33.2352Z" fill="white"/>
<path d="M55.2753 51.25V27.75H62.7386V51.25H55.2753ZM55.2753 23.8333V16H62.7386V23.8333H55.2753Z" fill="white"/>
<path d="M66.1205 51.25V39.5L81.0471 31.6667H66.1205V23.8333H88.5105V37.5417L77.3155 43.4167H88.5105V51.25H66.1205Z" fill="white"/>
<path d="M124.868 45V25H121.175L113.788 29V45H124.868ZM106.401 53V17H113.788V21L121.175 17H128.562C129.562 17 130.428 17.3958 131.159 18.1875C131.89 18.9792 132.255 19.9167 132.255 21V53H106.401Z" fill="white"/>
<path d="M139.296 53C138.257 53 137.372 52.625 136.641 51.875C135.949 51.0833 135.603 50.125 135.603 49V25H142.99V45L150.377 41V25H157.764V53H150.377V49L142.99 53H139.296Z" fill="white"/>
<path d="M161.111 53V25H168.498V29L175.885 25H179.578C180.579 25 181.444 25.3958 182.175 26.1875C182.906 26.9792 183.272 27.9167 183.272 29V53H175.885V33L168.498 37V53H161.111Z" fill="white"/>
<path d="M194.006 45L201.393 41V33H194.006V45ZM190.313 65V57H194.006L201.393 53V49L194.006 53H186.619V29C186.619 27.9167 186.965 26.9792 187.658 26.1875C188.389 25.3958 189.274 25 190.313 25H208.78V57L194.006 65H190.313Z" fill="white"/>
<path d="M219.514 45L225.055 33H219.514V45ZM212.127 53V29C212.127 27.9167 212.474 26.9792 213.166 26.1875C213.897 25.3958 214.782 25 215.821 25H234.288V33L228.748 45H234.288V53H212.127Z" fill="white"/>
<path d="M248.716 45L252.41 43V33H245.023V45H248.716ZM237.636 53V25H256.103C257.104 25 257.969 25.3958 258.7 26.1875C259.431 26.9792 259.797 27.9167 259.797 29V47L248.716 53H237.636Z" fill="white"/>
<path d="M263.144 53V25H270.531V29L277.918 25H281.611C282.612 25 283.477 25.3958 284.208 26.1875C284.939 26.9792 285.305 27.9167 285.305 29V53H277.918V33L270.531 37V53H263.144Z" fill="white"/>
<path d="M138.415 63H100.751V55.3053H138.415V63ZM131.607 7.69466H125.323V0H114.98L114.98 7.69466H108.172V0H101.364V14.4275H138.415V0H131.607V7.69466Z" fill="white"/>
<path d="M125.323 0V7.69466H131.607V0H138.415V14.4275H101.364V0H108.172V7.69466H114.98L114.98 0H125.323Z" fill="white"/>
</svg>
