<svg width="43" height="43" viewBox="0 0 43 43" fill="none" xmlns="http://www.w3.org/2000/svg">
<path d="M33.5226 36.0882C33.8108 35.558 34.1747 35.0648 34.6136 34.626C35.0737 34.1664 35.5953 33.7914 36.1544 33.4955C36.8226 33.1418 36.2944 32.3843 36.2944 32.3843C35.6105 31.3438 34.9869 30.2984 34.4713 29.3876L37.9328 25.929H41.2932C41.9395 25.929 42.4634 25.4046 42.4634 24.7582C42.4634 24.1121 41.9395 23.5877 41.2932 23.5877H37.4489C37.1378 23.5877 36.8404 23.711 36.621 23.9303L23.9712 36.567C23.7515 36.7867 23.6282 37.0848 23.6282 37.3951V41.2581C23.6282 41.9048 24.1522 42.4281 24.7987 42.4281C25.4457 42.4281 25.9697 41.9049 25.9697 41.2581V37.8803L29.4174 34.4371C30.348 34.9863 31.4297 35.6597 32.5015 36.4002C32.5017 36.3999 33.1156 36.837 33.5226 36.0882Z" fill="white"/>
<path d="M39.0549 35.1291C40.1078 35.1291 41.0972 35.5386 41.8421 36.2824C42.5858 37.0254 42.9951 38.0138 42.9951 39.0646C42.9951 40.1161 42.5856 41.1035 41.8421 41.8464C41.0973 42.5896 40.1078 42.9995 39.0549 42.9998C38.0027 42.9998 37.0131 42.5894 36.2689 41.8464C35.5247 41.1034 35.1148 40.1156 35.1148 39.0646C35.1148 38.0137 35.5249 37.0253 36.2689 36.2824C37.013 35.5386 38.0027 35.1291 39.0549 35.1291Z" fill="white"/>
<path d="M28.0356 27.0123C28.5545 27.5307 29.4034 27.5307 29.9223 27.0124L31.2276 25.7085C31.7464 25.1902 31.7464 24.342 31.2276 23.8237L8.94557 1.56516C8.42671 1.0469 7.40455 0.568485 6.67427 0.50211L1.21278 0.00547598C0.482353 -0.0608999 -0.0608044 0.482256 0.00557137 1.21269L0.501318 6.66366C0.567694 7.39409 1.04655 8.41565 1.5654 8.93407L23.8487 31.1953C24.3676 31.7136 25.2165 31.7136 25.7354 31.1953L27.0425 29.8896C27.5613 29.3713 27.5613 28.5231 27.0425 28.0047L8.38612 9.36566C8.11143 9.09186 8.11113 8.64678 8.38567 8.37269C8.65947 8.09815 9.1047 8.09814 9.37968 8.37239L28.0356 27.0123Z" fill="white"/>
</svg>
